<svg width="24" height="24" viewBox="0 0 24 24" fill="none" xmlns="http://www.w3.org/2000/svg">
<path d="M10 5H3H10Z" fill="#6F6F6F"/>
<path d="M12 19H3H12Z" fill="#6F6F6F"/>
<path d="M14 3V7V3Z" fill="#6F6F6F"/>
<path d="M16 17V21V17Z" fill="#6F6F6F"/>
<path d="M21 12H12H21Z" fill="#6F6F6F"/>
<path d="M21 19H16H21Z" fill="#6F6F6F"/>
<path d="M21 5H14H21Z" fill="#6F6F6F"/>
<path d="M8 10V14V10Z" fill="#6F6F6F"/>
<path d="M8 12H3H8Z" fill="#6F6F6F"/>
<path d="M10 5H3M12 19H3M14 3V7M16 17V21M21 12H12M21 19H16M21 5H14M8 10V14M8 12H3" stroke="#6F6F6F" stroke-width="1.5" stroke-linecap="round" stroke-linejoin="round"/>
</svg>
